<svg role="img" viewBox="0 0 24 24" xmlns="http://www.w3.org/2000/svg"><title>MongoDB</title><path fill="#47A248" d="M17.193 9.555c-1.264-5.58-4.252-7.243-4.pickup-7.502.02-.01.053-.01.05-.01H12.6c-.75 0-2.027.267-3.155.748C6.81 4.15 5.382 6.59 5.048 9.155c-.375 2.875.73 5.93 3.12 7.943 0 0 .57 3.25 1.08 3.807 0 0 1.253 1.127 2.75 1.127s2.75-1.127 2.75-1.127c.504-.557 1.08-3.807 1.08-3.807 2.39-2.013 3.495-5.068 3.365-7.543zm-5.168 9.033c-.428 0-1.048-.527-1.048-1.197V16.58h2.096v.811c0 .67-.62 1.197-1.048 1.197z"/></svg>
