<svg role="img" viewBox="0 0 24 24" xmlns="http://www.w3.org/2000/svg"><title>MySQL</title><path fill="#4479A1" d="M16.405 5.501c-.115 0-.193.014-.274.033v.013h.014c.054.104.146.18.214.274.054.107.1.214.154.32l.014-.015c.094-.066.14-.172.14-.333-.04-.047-.046-.094-.08-.14-.04-.067-.126-.1-.18-.152zM5.77 18.695h-.927a50.854 50.854 0 0 0-.27-4.41h-.008l-1.41 4.41H2.45l-1.4-4.41h-.01a72.892 72.892 0 0 0-.195 4.41H0c.055-1.966.192-3.81.41-5.53h1.15l1.335 4.064h.008l1.347-4.064h1.095c.242 2.015.384 3.86.428 5.53zm4.017-4.08c-.378 2.045-.876 3.533-1.492 4.46-.482.716-1.01 1.073-1.583 1.073-.153 0-.34-.046-.566-.138v-.494c.11.017.24.026.386.026.268 0 .483-.075.647-.222.197-.18.295-.382.295-.605 0-.155-.077-.47-.23-.944L6.23 14.615h.91l.727 2.36c.164.536.233.91.205 1.123.4-1.064.678-2.227.835-3.483zm12.325 4.08h-2.63v-5.53h.885v4.85h1.745zm-3.32.135c-.597 0-1.06-.065-1.389-.196l.166-.absorb.8c.183.08.41.12.683.12.27 0 .485-.06.647-.179.162-.12.243-.277.243-.47 0-.2-.052-.367-.154-.5-.1-.133-.347-.308-.74-.525-.428-.23-.72-.455-.876-.673-.154-.218-.232-.467-.232-.747 0-.355.117-.657.35-.9.234-.244.55-.366.948-.366.33 0 .67.064.988.19l-.147.776c-.267-.148-.524-.22-.77-.22-.222 0-.395.057-.517.17-.12.116-.182.266-.182.45 0 .195.055.36.166.494.11.133.357.313.74.54.434.245.732.48.887.703.155.223.232.484.232.783.0.37-.126.68-.378.93zm-5.39-.3v-5.33h.885v5.33zm-2.36 0h-.84v-2.25c0-.53-.13-.8-.39-.8-.155 0-.28.056-.373.168-.094.11-.14.252-.14.424v2.458h-.84v-2.25c0-.53-.13-.8-.39-.8-.16 0-.284.056-.376.168-.09.11-.137.252-.137.424v2.458h-.84v-3.385h.73l.1.466h.015c.14-.204.31-.358.514-.46.2-.1.425-.15.672-.15.51 0 .855.193 1.032.58.268-.387.638-.58 1.11-.58.35 0 .62.1.805.3.185.2.278.493.278.877v2.352z"/></svg>
