<svg role="img" viewBox="0 0 24 24" xmlns="http://www.w3.org/2000/svg"><title>Next.js</title><path fill="#000000" d="M11.5725 0c-.1763 0-.3098.0013-.3584.0067-.0967.0109-.1928.0326-.2795.064-.0866.0315-.1643.0794-.2279.142-.095.0918-.1685.2073-.2089.3422-.0287.0952-.0416.1971-.0428.3029l-.0008 9.3842v.3044l.0064.3044.0247.2822.0493.2569.0617.1983.0617.1551.086.1615.0987.1361.1112.109.1236.0747.1246.0406.0931.012h.1053l.1112-.0173.1173-.0346.118-.0547.1112-.0747.1045-.0931.0964-.1111.0871-.1297.0771-.1484.0371-.0945.0361-.1141.0365-.1497.0302-.1797.0173-.1797.0043-.1497.0028-.1057v-1.155l.0019-7.4083v-.3044l-.0028-.3044-.0079-.2822-.0153-.2569-.0201-.1983-.0198-.1551-.0289-.1615-.0359-.1361-.0427-.109-.0496-.0747-.0542-.0406-.0489-.012h-.052l-.052.0173-.0557.0346-.0557.0547-.0565.0747-.0565.0931-.0535.1111-.0489.1297-.0427.1484-.0256.0945-.0214.1141-.018.1497-.0128.1797-.0068.1797-.0019.1497v.1057l-.0009 1.1284v.0244l-.0009 7.4083v.3044l.0028.3044.0077.2822.0153.2569.02.1983.0199.1551.0288.1615.036.1361.0427.109.0496.0747.0542.0406.0489.012h.952l.052-.0173.0557-.0346zm-4.24 0 .0064.0173v.0001l-.1753.0004-.1759.0013-.1607.0026-.1456.0039-.1456.0039-.0987.0026-.0987.0052-.0814.0052-.0681.0039-.0554.0039-.0421.0039-.0302.0026-.0185.0026-.0109.0013-.0037.0013H5.44c-.2056 0-.4103.0033-.5997.0099l-.2317.0087-.2108.0099-.1696.0099-.1283.0099-.0884.0099-.056.0087-.0237.0075-.0108.006-.0058.006-.0037.006-.0019.006-.001.0048L4.2 .0001l-.003.006-.003.006-.003.006-.003.0072-.003.0084-.0037.012-.003.0134-.0019.0147-.0019.0147-.001.0147-.001.0147-.001.0147v.0147l-.001.0147v.0159l-.001.0159v.0172l-.001.0172v.0197l-.001.0197v9.4416l-.001.0197v.0197l-.001.0172v.0172l-.001.0159v.0147l-.001.0147v.0147l-.001.0147l-.001.0134-.0014.012-.0014.0108-.0019.0096-.0019.0084-.0019.0072-.0019.006-.0019.0048-.0019.0048-.0019.0036-.0019.0024-.0014.0024-.0014.0012-.0014.0012-.0009.0012-.0009.0001L4.049 12.009l-.0009.0012-.0019.0012-.0019.0024-.0019.0024-.0028.0036-.0028.0036-.0037.0048-.0037.0048-.0037.0048-.0046.006-.0037.006-.0037.006-.0037.006-.0037.006-.0028.006-.0028.0072-.0028.0072-.0019.0084-.0014.0084-.0009.0096L4.02 12.09l-.0005.0108v.012l-.0005.0134v.0147l-.0005.0147v.2944l-.0005.2953v.3l-.0005.3v.3005l-.0005.3012v3.3116c0 .2085.0014.4068.0028.5942l.0037.2809.0037.2646.0037.2385.0028.2124.0028.1862.0028.1601.0019.1341.0014.1092.0014.0843.0009.0595.0005.0347.0005.0111V21.9l.0005.026.0005.0111.0009.0075.0009.0063.0014.0051.0014.004.0014.004.0019.0028.0019.0028.0019.0016.0019.0016.0009.0016.0009.0016.0009.0016h11.1c.0009 0 .0009-.0016.0019-.0016l.0019-.0016.0019-.0016.0019-.0028.0019-.0028.0014-.004.0014-.004.0014-.0051.0009-.0063.0009-.0075.0005-.0111.0005-.026V21.43l.0005-.0111.0005-.0347.0005-.0595.0009-.0843.0014-.1092.0014-.1341.0019-.1601.0028-.1862.0028-.2124.0037-.2385.0037-.2646.0037-.2809.0028-.5942v-3.3116l.0005-.3012.0005-.3v-3.0005c0-.2028.0005-.3975.0009-.5803l.0009-.2809.0009-.2646.0009-.2385.001-.2124.001-.1862.001-.1601.0009-.1341.0009-.1092.0009-.0843.0005-.0595.0005-.0347.0005-.0111V12.27l.0001-.026.0001-.0111.0001-.0075.0001-.0063.0001-.0051.0001-.004.0001-.004.0001-.0028.0001-.0028.0001-.0016.0001-.0016.0001-.0016.0001-.0016.0001-.0016h.0001c.001-.0013.001-.0013.0005 0zm7.4823 6.0165L11.5725 0h-.0003v.0001c0 .0015 0 .0015 0 0L9.0125 6.0166 7.3325 0H5.4425L8.8025 12.004l-1.7424 8.3164C7.7201 21.65 8.3941 22 9.1061 22c.7231 0 1.3901-.35 1.7384-1.0016l5.38-10.7744-2.244-4.1757zm-7.46 6.06L4.7 7.1c-.2197-.4409-.7129-.6695-1.2082-.5681-.4952.1014-.85.5353-.85 1.0403v7.2356c0 .5537.4478 1.0014 1.0014 1.0014.5537 0 1.0014-.4477 1.0014-1.0014V7.6719l2.8508 5.7006-1.1501-.2255z"/></svg>
