<svg role="img" viewBox="0 0 24 24" xmlns="http://www.w3.org/2000/svg"><title>PostgreSQL</title><path fill="#4169E1" d="M17.128 0a10.134 10.134 0 0 0-2.755.403 11.33 11.33 0 0 0-2.501-.033C10.596.543 9.307.945 8.295 1.695 7.282 2.444 6.594 3.5 6.32 4.717c-.274 1.217.077 2.53.758 3.66C3.746 9.272 2.29 11.02 1.905 13.051c-.39 2.084.582 4.184 2.328 5.598 1.746 1.414 4.163 2.105 6.7 1.867.42-.04.836-.105 1.243-.195.79 1.11 1.877 1.93 3.188 2.414 1.432.525 3.023.556 4.563.14a10.019 10.019 0 0 0 3.823-2.022c1.082-.93 1.965-2.094 2.567-3.39.601-1.295.919-2.762.91-4.28..004-2.32-.612-4.644-2.022-6.453C23.794 4.825 21.79 3.467 19.4 3.05c-.47-.082-.96-.125-1.453-.135C17.82.81 17.56.275 17.128 0zM9.662 1.67c-.874-.027-1.723.11-2.477.437C8.41 1.64 9.91 1.517 11.127 1.63c-.22-.021-.436-.024-.651-.014a7.95 7.95 0 0 0-.814.054zm4.788.498c-.33.086-.645.23-.95.43.208-.09.424-.163.64-.22.104-.026.207-.048.31-.065zm.37.44c-.18.084-.35.185-.51.306.15-.11.31-.202.48-.28zm-1.476-.36c.25.015.527.053.855.12a6.08 6.08 0 0 0-.855-.12zm2.295 1.01c.234-.14.47-.265.71-.367.24-.102.482-.18.727-.225a6.08 6.08 0 0 0-.727.224c-.24.101-.477.226-.71.367zM7.42 2.408c-.294.13-.57.285-.83.463C6.83 2.693 7.11 2.537 7.42 2.408zM5.97 3.39l-.2.176.2-.176zm3.08-1.06c.298-.097.61-.17.937-.213a8.39 8.39 0 0 0-.937.213zM5.53 3.822l-.117.115.117-.115zm-.465.5zM5.01 4.4c.014-.018.028-.036.041-.055-.013.019-.027.037-.04.055zm-.46.667zM4.5 5.19l-.048.094.048-.094zm-.19.422c.013-.03.027-.06.041-.09-.014.03-.028.06-.041.09zm-.165.454zm-.126.434zm-.102.46zm-.075.496zm-.047.516v.016-.016zm-.01.517v.054-.054zm-.007 1.094v.01-.01zm0 .14v.09-.09zm.007.55v.044-.044zm.02.508l.006.084-.006-.084zm.038.534l.012.109-.012-.109zm.072.543.019.112-.019-.112zm.12.548.03.104-.03-.104zm.16.484.035.093-.035-.093zm.19.472.047.099-.047-.099zm.233.462.059.107-.059-.107zm.283.458.073.114-.073-.114zm.334.455.089.121-.089-.121zM4.46 14.1l-.022-.031.022.031zm11.43 6.93l.072.09-.072-.09zm.166.196.082.09-.082-.09zm.172.186.088.087-.088-.087zm.194.18.099.083-.099-.083zm.226.17.119.08-.119-.08zm.256.16.14.075-.14-.075zm.283.143.164.071-.164-.071zm.316.13.19.066-.19-.066zm.349.115.22.061-.22-.061zm.376.1.25.053-.25-.053zm.407.077.28.04-.28-.04zm.44.05.31.025-.31-.025zm.474.034.344.013-.344-.013zm.51.015.378.002-.378-.002zm.55 0h.038-.038z"/></svg>
