<svg role="img" viewBox="0 0 24 24" xmlns="http://www.w3.org/2000/svg"><title>React</title><path fill="#61DAFB" d="M14.23 12.004a2.236 2.236 0 0 1-2.235 2.236 2.236 2.236 0 0 1-2.236-2.236 2.236 2.236 0 0 1 2.235-2.236 2.236 2.236 0 0 1 2.236 2.236zm2.648-10.69c-1.346 0-3.107.96-4.888 2.622-1.78-1.653-3.542-2.602-4.887-2.602-.41 0-.783.093-1.106.278-1.375.793-1.683 3.264-.973 6.365C1.98 8.917 0 10.42 0 12.004c0 1.59 1.99 3.097 5.043 4.03-.704 3.113-.39 5.588.988 6.38.32.187.69.275 1.102.275 1.345 0 3.107-.96 4.888-2.624 1.78 1.654 3.542 2.603 4.887 2.603.41 0 .783-.09 1.106-.275 1.374-.792 1.683-3.263.973-6.365C22.02 15.096 24 13.59 24 12.004c0-1.59-1.99-3.097-5.043-4.032.704-3.11.39-5.587-.988-6.38-.318-.184-.688-.277-1.092-.278zm-.005 1.09c.13 0 .254.023.348.075.71.41.987 2.12.633 4.357-.06.38-.158.77-.271 1.163a27.75 27.75 0 0 0-3.686-.38 27.75 27.75 0 0 0-2.387-2.93c1.52-1.44 3.01-2.286 4.363-2.286zm-9.975.02c1.346 0 2.836.845 4.355 2.285a27.705 27.705 0 0 0-2.386 2.932 27.706 27.706 0 0 0-3.687.375c-.11-.39-.21-.78-.27-1.16-.35-2.24-.073-3.948.637-4.358.09-.048.213-.074.351-.074zm4.988 1.42c.54.65 1.07 1.37 1.57 2.16-.52-.044-1.05-.066-1.573-.066-1.17 0-2.32.075-3.43.22.5-.79 1.03-1.51 1.57-2.17 1.72.08 3.41.08 5.13 0l-.002.002-.266-.148c-.004-.002 1.576-.05 1.58-.052zm-7.33 2.68c.275.155.517.16.77.16h.06c.43 0 .85-.02 1.27-.04l.39-.01c.66.01 1.32.06 1.99.15a24.58 24.58 0 0 1 1.56 3.36c-.51 1.13-1.08 2.21-1.71 3.23v.01a26.23 26.23 0 0 1-1.99.16l-.37.01c-.43.02-.85.04-1.28.04-.25 0-.5-.01-.74-.16-.15-.09-.28-.22-.37-.38a4.15 4.15 0 0 1-.37-.96 22.47 22.47 0 0 1-.47-3.34c0-.71.08-1.57.19-2.47.065-.47.145-.93.24-1.39-.01.07.045-.02.061-.04.09-.13.21-.23.34-.32zm6.17-.24h.003v.001a24.13 24.13 0 0 1 2.43 1.16 26.97 26.97 0 0 1-.1 6.76 24.14 24.14 0 0 1-2.44 1.17 26.02 26.02 0 0 1-1.55-3.26 26.14 26.14 0 0 1 1.66-5.83zm3.35 1.8c.57.3 1.12.62 1.64.96a20.3 20.3 0 0 1-1.13 5.27c-.34.67-.73 1.29-1.15 1.87a27.5 27.5 0 0 0 .64-8.1zM4.67 14.5c.11.04.22.07.34.08.13.01.26.02.39.02.44 0 .87-.03 1.3-.07.08.85.18 1.63.3 2.36-.43-.07-.85-.17-1.27-.3-.94-.28-1.76-.64-2.44-1.04a14.65 14.65 0 0 1 1.38-1.07zm14.28-.2a15.37 15.37 0 0 1 1.21.99c-.69.4-1.5.77-2.44 1.05-.42.13-.85.23-1.27.3.12-.73.22-1.51.3-2.36.44.04.87.07 1.31.07.26 0 .52-.01.77-.04l.12-.01zm-9.35 4.43c.49.56 1 1.09 1.54 1.54-.53.42-1.05.79-1.56 1.09-1.35.79-2.66 1.1-3.51.62-.84-.49-1.13-1.87-.75-3.83.06-.31.14-.62.24-.94.5.35 1.04.68 1.61.97l.16.08c.4.2.81.38 1.23.54zm5.08-.07c.42-.16.83-.34 1.23-.53l.14-.07a24.47 24.47 0 0 0 1.6-.97c.1.33.18.64.24.94.38 1.96.09 3.34-.75 3.83-.84.48-2.16.17-3.51-.62-.51-.3-1.03-.67-1.56-1.09.55-.45 1.06-.98 1.54-1.54zm-2.54 1.76c.52 0 1.05-.01 1.57-.05-.49.41-.98.77-1.46 1.05-.49.29-.96.47-1.4.53-.44.06-.85-.03-1.22-.29a1.88 1.88 0 0 1-.44-.47c.47-.01.95-.05 1.44-.12.5.15.97.24 1.49.27.01.01.02.08.02.08zm-1.27-2.39c.46.48.94.93 1.43 1.34.48-.41.96-.86 1.42-1.34-.46-.48-.95-.93-1.43-1.34-.47.41-.96.86-1.42 1.34z"/></svg>
