<svg role="img" viewBox="0 0 24 24" xmlns="http://www.w3.org/2000/svg"><title>Three.js</title><path fill="#000000" d="M.38 0a.268.268 0 0 0-.256.332l2.894 14.4a.268.268 0 0 0 .01.04l2.89 14.4A.268.268 0 0 0 6.179 29.4l11.32-7.47a.268.268 0 0 0 .123-.193L23.898.332A.268.268 0 0 0 23.642 0zm.718.536h10.979L5.81 8.6zM12.85.536h10.043l-1.902 9.446zm-1.112.234l5.701 8.824-9.3 5.474zm-10.523.8 6.3 7.864L1.993 11.1zM13.802 9.802l8.603 1.189-4.824 8.47zm-.943.397-5.82 5.394 1.211 9.793zM1.69 12.11l5.43 1.73-1.92 7.428zm16.762.099-3.972 7.916-8.243.792zm-10.96 1.667 5.736 6.35-7.086.775z"/></svg>
